<svg width="58" height="47" viewBox="0 0 58 47" fill="none" xmlns="http://www.w3.org/2000/svg">
<path d="M16.2423 22.0924C18.4206 22.0898 20.5088 21.2233 22.049 19.6831C23.5892 18.1429 24.4557 16.0546 24.4584 13.8764V12.0495C25.8194 11.5302 26.9554 10.5503 27.6688 9.2802C28.3822 8.01011 28.628 6.53016 28.3633 5.09766C28.0986 3.66516 27.3403 2.37072 26.2202 1.43939C25.1 0.508068 23.6889 -0.00123625 22.2321 3.34574e-05C20.914 -0.00431704 19.6294 0.415712 18.5684 1.19799C17.9916 0.72978 17.3175 0.39623 16.5954 0.221673C15.8733 0.0471166 15.1213 0.0359563 14.3943 0.189006C13.6673 0.342057 12.9836 0.655456 12.3932 1.10635C11.8027 1.55724 11.3204 2.13424 10.9813 2.79527C10.1027 3.12122 9.3449 3.70814 8.80955 4.47726C8.2742 5.24637 7.98697 6.16086 7.9864 7.09795V13.8764C7.98771 14.9583 8.20243 16.0294 8.61829 17.0282C9.03414 18.027 9.64295 18.934 10.4099 19.6972C11.1767 20.4604 12.0867 21.0648 13.0875 21.4758C14.0883 21.8868 15.1604 22.0964 16.2423 22.0924ZM15.4337 2.12641C15.8778 2.12786 16.3159 2.22804 16.7165 2.41969C17.1171 2.61134 17.47 2.88967 17.7498 3.23453C17.8381 3.34096 17.9477 3.42787 18.0714 3.48974C18.1951 3.55161 18.3304 3.58708 18.4685 3.59391C18.6082 3.60151 18.748 3.57966 18.8787 3.52979C19.0094 3.47992 19.1281 3.40313 19.2273 3.30441C19.6177 2.90608 20.0837 2.58965 20.5979 2.37367C21.1122 2.15768 21.6644 2.04647 22.2222 2.04655C22.9821 2.04194 23.7294 2.24153 24.3858 2.62446C25.0422 3.0074 25.5838 3.55962 25.9538 4.22342C26.3238 4.88722 26.5088 5.63821 26.4893 6.39793C26.4698 7.15765 26.2467 7.89819 25.8431 8.54216C25.4396 9.18614 24.8705 9.7099 24.1953 10.0587C23.5201 10.4075 22.7636 10.5686 22.0049 10.5251C21.2462 10.4815 20.5131 10.235 19.8822 9.81127C19.2514 9.38752 18.7459 8.80211 18.4186 8.11621C18.3635 7.98237 18.2799 7.86211 18.1737 7.76379C18.0674 7.66546 17.9411 7.59141 17.8034 7.54678C17.6657 7.50215 17.5199 7.48799 17.3762 7.5053C17.2325 7.52261 17.0943 7.57096 16.9711 7.64701C16.4971 7.93288 15.9571 8.09109 15.4038 8.10623C14.6095 8.10623 13.8477 7.7907 13.2861 7.22904C12.7244 6.66739 12.4089 5.90563 12.4089 5.11133C12.4089 4.31703 12.7244 3.55527 13.2861 2.99361C13.8477 2.43196 14.6095 2.11643 15.4038 2.11643L15.4337 2.12641ZM10.0229 7.11791C10.0236 6.59349 10.1838 6.08169 10.4822 5.65041C10.5631 6.40129 10.8134 7.12399 11.2142 7.7641C11.615 8.40421 12.1558 8.94502 12.796 9.34581C13.4361 9.7466 14.1588 9.99691 14.9096 10.0779C15.6605 10.1589 16.42 10.0684 17.1308 9.81332C17.6966 10.6969 18.4908 11.411 19.4292 11.8802C20.3676 12.3494 21.4154 12.5562 22.4618 12.4788V13.8964C22.4618 15.5459 21.8065 17.1278 20.6401 18.2942C19.4738 19.4605 17.8918 20.1158 16.2423 20.1158C14.5929 20.1158 13.0109 19.4605 11.8446 18.2942C10.6782 17.1278 10.0229 15.5459 10.0229 13.8964V7.11791ZM56.9031 21.0442H52.9099C52.7948 20.4805 52.4885 19.9738 52.0428 19.61C51.5971 19.2462 51.0394 19.0475 50.4641 19.0476C49.9233 19.0526 49.3984 19.2311 48.9666 19.5567C48.5373 19.2264 48.0108 19.0474 47.4692 19.0474C46.9275 19.0474 46.401 19.2264 45.9717 19.5567C45.5424 19.2264 45.0159 19.0474 44.4743 19.0474C43.9326 19.0474 43.4061 19.2264 42.9768 19.5567C42.545 19.2311 42.0201 19.0526 41.4794 19.0476C40.904 19.0475 40.3463 19.2462 39.9006 19.61C39.4549 19.9738 39.1486 20.4805 39.0335 21.0442H26.9541C26.6893 21.0442 26.4354 21.1494 26.2482 21.3366C26.061 21.5238 25.9558 21.7777 25.9558 22.0425V24.0391H9.983C7.33534 24.0391 4.79613 25.0909 2.92395 26.9631C1.05178 28.8352 0 31.3744 0 34.0221V43.0068C0 46.8103 13.7166 47 16.472 47C19.2273 47 32.9439 46.8103 32.9439 43.0068H56.9031C57.1679 43.0068 57.4218 42.9016 57.609 42.7144C57.7962 42.5272 57.9014 42.2733 57.9014 42.0085V22.0425C57.9014 21.7777 57.7962 21.5238 57.609 21.3366C57.4218 21.1494 57.1679 21.0442 56.9031 21.0442ZM50.4142 21.0442C50.5129 21.0442 50.6094 21.0735 50.6915 21.1283C50.7736 21.1832 50.8375 21.2611 50.8753 21.3523C50.9131 21.4435 50.923 21.5439 50.9037 21.6407C50.8844 21.7376 50.8369 21.8265 50.7671 21.8963C50.6973 21.9661 50.6084 22.0136 50.5115 22.0329C50.4147 22.0522 50.3143 22.0423 50.2231 22.0045C50.1319 21.9667 50.054 21.9027 49.9991 21.8207C49.9443 21.7386 49.915 21.6421 49.915 21.5433C49.915 21.411 49.9676 21.284 50.0612 21.1904C50.1548 21.0968 50.2818 21.0442 50.4142 21.0442ZM46.9201 21.5034C46.9201 21.371 46.9727 21.2441 47.0663 21.1505C47.1599 21.0569 47.2869 21.0043 47.4193 21.0043C47.5516 21.0043 47.6786 21.0569 47.7722 21.1505C47.8658 21.2441 47.9184 21.371 47.9184 21.5034V22.2521C47.9184 22.3845 47.8658 22.5115 47.7722 22.6051C47.6786 22.6987 47.5516 22.7513 47.4193 22.7513C47.2869 22.7513 47.1599 22.6987 47.0663 22.6051C46.9727 22.5115 46.9201 22.3845 46.9201 22.2521V21.5034ZM43.9252 21.5034C43.9252 21.371 43.9778 21.2441 44.0714 21.1505C44.165 21.0569 44.292 21.0043 44.4244 21.0043C44.5567 21.0043 44.6837 21.0569 44.7773 21.1505C44.8709 21.2441 44.9235 21.371 44.9235 21.5034V23.5C44.9235 23.6324 44.8709 23.7594 44.7773 23.853C44.6837 23.9466 44.5567 23.9992 44.4244 23.9992C44.292 23.9992 44.165 23.9466 44.0714 23.853C43.9778 23.7594 43.9252 23.6324 43.9252 23.5V21.5034ZM40.9303 21.5034C40.9303 21.371 40.9829 21.2441 41.0765 21.1505C41.1701 21.0569 41.2971 21.0043 41.4295 21.0043C41.5618 21.0043 41.6888 21.0569 41.7824 21.1505C41.876 21.2441 41.9286 21.371 41.9286 21.5034V22.2521C41.9286 22.3845 41.876 22.5115 41.7824 22.6051C41.6888 22.6987 41.5618 22.7513 41.4295 22.7513C41.2971 22.7513 41.1701 22.6987 41.0765 22.6051C40.9829 22.5115 40.9303 22.3845 40.9303 22.2521V21.5034ZM20.9643 27.6929C21.2759 28.6312 21.3648 29.6293 21.2239 30.6079C20.7058 30.2578 20.1579 29.9538 19.5866 29.6995C20.2044 29.1545 20.6777 28.4652 20.9643 27.6929ZM19.2772 26.0357C19.2772 26.83 18.9616 27.5918 18.4 28.1534C17.8383 28.7151 17.0766 29.0306 16.2823 29.0306C15.488 29.0306 14.7262 28.7151 14.1646 28.1534C13.6029 27.5918 13.2874 26.83 13.2874 26.0357H19.2772ZM11.5403 27.6929C11.8334 28.4615 12.3098 29.1469 12.928 29.6895C12.3545 29.9458 11.8036 30.2497 11.2808 30.5979C11.1464 29.6224 11.2352 28.6291 11.5403 27.6929ZM16.472 45.0034C13.299 45.0322 10.1285 44.8186 6.9881 44.3645V38.0153C6.9881 37.7505 6.88292 37.4966 6.6957 37.3094C6.50849 37.1222 6.25457 37.017 5.9898 37.017C5.72503 37.017 5.47111 37.1222 5.2839 37.3094C5.09668 37.4966 4.9915 37.7505 4.9915 38.0153V44.0051C3.92282 43.8646 2.89934 43.4859 1.9966 42.897V34.0221C1.9966 31.904 2.83802 29.8726 4.33576 28.3749C5.8335 26.8771 7.86488 26.0357 9.983 26.0357H10.1228C8.4556 28.8809 9.61363 32.4947 9.67353 32.6844C9.72709 32.8392 9.81795 32.9785 9.93808 33.0899C10.0582 33.2014 10.2039 33.2815 10.3624 33.3233C10.519 33.3607 10.6821 33.3621 10.8395 33.3275C10.9968 33.293 11.1442 33.2232 11.2708 33.1236C12.5483 31.8894 14.2051 31.1225 15.9728 30.9473H16.472C18.2432 31.1203 19.9038 31.8873 21.1839 33.1236C21.308 33.2303 21.4564 33.3049 21.6161 33.3407C21.7757 33.3766 21.9417 33.3726 22.0995 33.3293C22.2573 33.2859 22.402 33.2044 22.5209 33.0919C22.6397 32.9795 22.7291 32.8395 22.7812 32.6844C22.8411 32.4947 24.0091 28.8809 22.342 26.0357H25.9558V42.0085C25.9558 42.2733 26.061 42.5272 26.2482 42.7144C26.4354 42.9016 26.6893 43.0068 26.9541 43.0068H30.8075C29.7693 43.7655 24.9575 45.0034 16.472 45.0034ZM55.9048 41.0102H27.9524V23.0408H39.0635C39.5027 24.2188 40.2215 25.1272 42.1981 24.658C42.404 25.0725 42.7215 25.4212 43.1148 25.665C43.5081 25.9087 43.9616 26.0379 44.4244 26.0379C44.8871 26.0379 45.3406 25.9087 45.7339 25.665C46.1272 25.4212 46.4447 25.0725 46.6506 24.658C47.1193 24.8175 47.6255 24.8302 48.1017 24.6947C48.5779 24.5591 49.0015 24.2817 49.316 23.8993C49.8548 24.1883 50.4837 24.2603 51.0739 24.1007C51.6641 23.9411 52.1709 23.5619 52.4906 23.0408H55.9048V41.0102Z" fill="#21823C"/>
</svg>
