<svg width="65" height="65" viewBox="0 0 65 65" fill="none" xmlns="http://www.w3.org/2000/svg">
<path d="M32.5 42.3618C37.9466 42.3618 42.3619 37.9465 42.3619 32.4999C42.3619 27.0534 37.9466 22.6381 32.5 22.6381C27.0535 22.6381 22.6382 27.0534 22.6382 32.4999C22.6382 37.9465 27.0535 42.3618 32.5 42.3618Z" stroke="#21823C" stroke-width="4" stroke-linecap="round" stroke-linejoin="round"/>
<path d="M32.5001 22.638V9.09534" stroke="#21823C" stroke-width="4" stroke-linecap="round" stroke-linejoin="round"/>
<path d="M32.5 9.09545C34.4593 9.09545 36.0477 7.50708 36.0477 5.54772C36.0477 3.58837 34.4593 2 32.5 2C30.5406 2 28.9523 3.58837 28.9523 5.54772C28.9523 7.50708 30.5406 9.09545 32.5 9.09545Z" stroke="#21823C" stroke-width="4" stroke-linecap="round" stroke-linejoin="round"/>
<path d="M32.5001 42.3619V55.9046" stroke="#21823C" stroke-width="4" stroke-linecap="round" stroke-linejoin="round"/>
<path d="M32.5 63C34.4593 63 36.0477 61.4116 36.0477 59.4523C36.0477 57.4929 34.4593 55.9045 32.5 55.9045C30.5406 55.9045 28.9523 57.4929 28.9523 59.4523C28.9523 61.4116 30.5406 63 32.5 63Z" stroke="#21823C" stroke-width="4" stroke-linecap="round" stroke-linejoin="round"/>
<path d="M26.7125 32.4999H9.09543" stroke="#21823C" stroke-width="4" stroke-linecap="round" stroke-linejoin="round"/>
<path d="M5.54772 36.0476C7.50708 36.0476 9.09545 34.4592 9.09545 32.4999C9.09545 30.5405 7.50708 28.9521 5.54772 28.9521C3.58837 28.9521 2 30.5405 2 32.4999C2 34.4592 3.58837 36.0476 5.54772 36.0476Z" stroke="#21823C" stroke-width="4" stroke-linecap="round" stroke-linejoin="round"/>
<path d="M38.2875 32.4999H55.9046" stroke="#21823C" stroke-width="4" stroke-linecap="round" stroke-linejoin="round"/>
<path d="M59.4524 36.0476C61.4117 36.0476 63.0001 34.4592 63.0001 32.4999C63.0001 30.5405 61.4117 28.9521 59.4524 28.9521C57.493 28.9521 55.9047 30.5405 55.9047 32.4999C55.9047 34.4592 57.493 36.0476 59.4524 36.0476Z" stroke="#21823C" stroke-width="4" stroke-linecap="round" stroke-linejoin="round"/>
<path d="M50.2068 53.7545C52.1662 53.7545 53.7546 52.1661 53.7546 50.2068C53.7546 48.2474 52.1662 46.6591 50.2068 46.6591C48.2475 46.6591 46.6591 48.2474 46.6591 50.2068C46.6591 52.1661 48.2475 53.7545 50.2068 53.7545Z" stroke="#21823C" stroke-width="4" stroke-linecap="round" stroke-linejoin="round"/>
<path d="M43.447 43.4471L47.4606 47.4607" stroke="#21823C" stroke-width="4" stroke-linecap="round" stroke-linejoin="round"/>
<path d="M14.7932 18.341C16.7526 18.341 18.341 16.7526 18.341 14.7933C18.341 12.8339 16.7526 11.2455 14.7932 11.2455C12.8339 11.2455 11.2455 12.8339 11.2455 14.7933C11.2455 16.7526 12.8339 18.341 14.7932 18.341Z" stroke="#21823C" stroke-width="4" stroke-linecap="round" stroke-linejoin="round"/>
<path d="M21.553 21.553L17.5393 17.5394" stroke="#21823C" stroke-width="4" stroke-linecap="round" stroke-linejoin="round"/>
<path d="M50.2068 18.341C52.1662 18.341 53.7546 16.7526 53.7546 14.7933C53.7546 12.8339 52.1662 11.2455 50.2068 11.2455C48.2475 11.2455 46.6591 12.8339 46.6591 14.7933C46.6591 16.7526 48.2475 18.341 50.2068 18.341Z" stroke="#21823C" stroke-width="4" stroke-linecap="round" stroke-linejoin="round"/>
<path d="M43.447 21.553L47.4606 17.5394" stroke="#21823C" stroke-width="4" stroke-linecap="round" stroke-linejoin="round"/>
<path d="M14.7932 53.7545C16.7526 53.7545 18.341 52.1661 18.341 50.2068C18.341 48.2474 16.7526 46.6591 14.7932 46.6591C12.8339 46.6591 11.2455 48.2474 11.2455 50.2068C11.2455 52.1661 12.8339 53.7545 14.7932 53.7545Z" stroke="#21823C" stroke-width="4" stroke-linecap="round" stroke-linejoin="round"/>
<path d="M21.553 43.4471L17.5393 47.4607" stroke="#21823C" stroke-width="4" stroke-linecap="round" stroke-linejoin="round"/>
<path d="M32.5001 33.0208C32.7877 33.0208 33.0209 32.7876 33.0209 32.4999C33.0209 32.2123 32.7877 31.9791 32.5001 31.9791C32.2124 31.9791 31.9792 32.2123 31.9792 32.4999C31.9792 32.7876 32.2124 33.0208 32.5001 33.0208Z" fill="#0000FF" stroke="#0000FF" stroke-width="4" stroke-linecap="round" stroke-linejoin="round"/>
</svg>
