<svg width="48" height="61" viewBox="0 0 48 61" fill="none" xmlns="http://www.w3.org/2000/svg">
<path d="M20.3019 51.8298L19.9007 51.7824L20.266 48.7353C20.3749 47.8308 20.2816 46.9137 19.9928 46.0485C19.704 45.1833 19.2266 44.3909 18.5942 43.7269L7.804 32.3749L9.26369 25.1316C9.34401 24.7329 9.34212 24.3223 9.25813 23.9243C9.17414 23.5262 9.00978 23.149 8.77482 22.8149C8.53986 22.4808 8.23911 22.1967 7.89047 21.9795C7.54184 21.7624 7.15244 21.6166 6.74548 21.5509C6.5802 21.5244 6.41303 21.5109 6.24558 21.5107C5.59072 21.509 4.95254 21.7143 4.42477 22.0965C3.89701 22.4787 3.50747 23.0176 3.31338 23.6342L0.372478 32.8784C-0.160162 34.5592 -0.120612 36.3656 0.485097 38.0222L2.63839 43.8869C3.15508 45.2934 4.05946 46.5301 5.24989 47.4578L6.59214 48.5037C6.87616 48.7264 7.11236 49.0026 7.28694 49.3162C7.46152 49.6298 7.571 49.9745 7.60897 50.3303C6.92551 50.2684 6.24447 50.4714 5.71036 50.8963C5.17625 51.3212 4.83111 51.9346 4.74818 52.6062L4.55847 54.1652L4.55823 54.166V54.1668L4.08069 58.0901C4.05328 58.3248 4.12126 58.5606 4.26974 58.746C4.41823 58.9313 4.63514 59.0512 4.87304 59.0794C5.11094 59.1075 5.35046 59.0416 5.53922 58.8961C5.72797 58.7506 5.85061 58.5374 5.88029 58.303L6.24836 55.2785L20.4968 57.0649L20.1408 59.9896C20.1251 60.1068 20.1332 60.2259 20.1645 60.34C20.1959 60.4541 20.2498 60.561 20.3234 60.6544C20.3969 60.7477 20.4885 60.8258 20.5928 60.8841C20.6972 60.9423 20.8122 60.9795 20.9313 60.9936C21.0503 61.0077 21.1711 60.9984 21.2864 60.9661C21.4018 60.9339 21.5095 60.8794 21.6034 60.8059C21.6972 60.7323 21.7753 60.6411 21.8332 60.5375C21.891 60.434 21.9274 60.3201 21.9403 60.2026L22.4024 56.4059L22.4029 56.4032L22.4031 56.3996L22.6078 54.7188C22.6489 54.3799 22.6218 54.0363 22.5281 53.7076C22.4345 53.379 22.2761 53.0718 22.0619 52.8035C21.8478 52.5352 21.5822 52.3111 21.2802 52.1441C20.9783 51.977 20.6459 51.8702 20.302 51.8298H20.3019ZM6.37415 46.0564C5.44812 45.3346 4.74457 44.3727 4.34254 43.2785L2.18924 37.4138C1.71819 36.1255 1.68742 34.7208 2.10164 33.4137L5.04278 24.1691C5.12236 23.9162 5.28212 23.695 5.4986 23.5381C5.71509 23.3812 5.9769 23.2969 6.24558 23.2975C6.3152 23.2977 6.38469 23.3033 6.45342 23.3142C6.62036 23.3413 6.78008 23.4012 6.92305 23.4904C7.06603 23.5796 7.18935 23.6962 7.28567 23.8333C7.382 23.9704 7.44936 24.1253 7.48374 24.2886C7.51813 24.4519 7.51884 24.6203 7.48584 24.7839L6.01213 32.0966C5.20556 32.6444 4.63208 33.466 4.40132 34.4043C4.17055 35.3427 4.29869 36.3319 4.76123 37.183L7.32899 41.918C7.44233 42.127 7.63523 42.283 7.86527 42.3518C7.97917 42.3858 8.09875 42.3974 8.2172 42.3859C8.33565 42.3744 8.45064 42.34 8.5556 42.2847C8.66056 42.2294 8.75344 42.1542 8.82894 42.0635C8.90443 41.9728 8.96106 41.8683 8.9956 41.756C9.03014 41.6437 9.0419 41.5259 9.03022 41.4091C9.01855 41.2923 8.98365 41.179 8.92753 41.0755L6.35953 36.34C6.18987 36.0305 6.10127 35.6841 6.10178 35.3322C6.1011 34.7754 6.3201 34.2402 6.71249 33.8397L17.2715 44.9486C17.7232 45.4229 18.0642 45.9889 18.2706 46.6069C18.4769 47.2249 18.5436 47.8799 18.4659 48.526L18.1011 51.5695L9.43528 50.5445C9.42474 49.8811 9.26509 49.2282 8.96782 48.633C8.67055 48.0377 8.24306 47.5148 7.71615 47.102L6.37415 46.0564ZM20.8082 54.5058L20.7128 55.2906L6.46429 53.5042L6.54767 52.8191C6.57459 52.6053 6.68634 52.4108 6.85844 52.2781C7.03055 52.1454 7.24898 52.0854 7.4659 52.1111L8.38933 52.2204H8.38993L20.086 53.6038C20.3031 53.6291 20.5011 53.7382 20.6366 53.9074C20.772 54.0765 20.8338 54.2918 20.8082 54.5058ZM33.2717 26.5798C35.7833 23.0695 37.1107 19.0606 37.1107 14.9858V5.59154C37.1107 5.37812 37.0332 5.17176 36.8922 5.00978C36.7512 4.84781 36.5561 4.74094 36.3421 4.7085C34.0329 4.36039 31.7748 3.73861 29.6169 2.85666C27.8549 2.13731 26.1764 1.23352 24.6102 0.160851C24.4536 0.0530328 24.2664 -0.00321674 24.0754 0.000142132C23.8844 0.003501 23.6993 0.0662964 23.5467 0.179553C22.3982 1.02884 21.1722 1.77113 19.8844 2.39685C17.3037 3.64002 14.5311 4.45126 11.6803 4.79736C11.4617 4.82502 11.2608 4.93026 11.1152 5.09339C10.9696 5.25651 10.8893 5.46634 10.8893 5.68362V14.9859C10.8893 19.0606 12.2167 23.0695 14.7283 26.5798C16.9043 29.6209 19.9586 32.2678 23.561 34.2342C23.6953 34.3075 23.8464 34.346 24 34.346C24.1536 34.346 24.3046 34.3075 24.439 34.2342C28.0413 32.2678 31.0957 29.6209 33.2717 26.5798ZM24 32.4261C20.8266 30.618 18.1403 28.2485 16.2093 25.5497C13.9147 22.3427 12.7018 18.6896 12.7018 14.9859V6.45932C15.4754 6.04524 18.1683 5.21546 20.6874 3.99878C21.8806 3.41835 23.0253 2.74547 24.1105 1.98649C25.629 2.97529 27.2397 3.81907 28.9208 4.50635C30.9728 5.34567 33.1111 5.96322 35.2981 6.34819V14.9859C35.2981 18.6896 34.0853 22.3428 31.7906 25.5497C29.8597 28.2485 27.1734 30.618 24 32.4261ZM33.4856 8.51307C33.4856 8.3138 33.418 8.12025 33.2936 7.96319C33.1692 7.80612 32.9951 7.69456 32.799 7.64624C31.2387 7.26216 29.7096 6.76401 28.2244 6.15593C26.9826 5.64701 25.7758 5.05865 24.6118 4.39462C24.4703 4.31378 24.3092 4.27218 24.1456 4.27423C23.9821 4.27629 23.8222 4.32192 23.6828 4.40629C22.9709 4.83722 22.2393 5.23578 21.4903 5.60071C19.4919 6.56947 17.3865 7.30727 15.2162 7.79943C15.0167 7.84497 14.8387 7.9558 14.7112 8.11384C14.5838 8.27188 14.5144 8.46782 14.5144 8.66972V14.9859C14.5144 18.3189 15.6126 21.6157 17.6905 24.5198C19.1861 26.6102 21.1393 28.4583 23.4959 30.0131C23.645 30.1115 23.8205 30.164 24 30.164C24.1795 30.164 24.3549 30.1115 24.5041 30.0131C26.8606 28.4583 28.8138 26.6102 30.3094 24.5198C32.3873 21.6157 33.4856 18.3189 33.4856 14.9859V8.51307ZM31.6731 14.9859C31.6731 17.9482 30.6894 20.8887 28.8282 23.4899C27.4975 25.3111 25.8653 26.8986 24 28.1856C22.1347 26.8985 20.5025 25.311 19.1717 23.4897C17.3106 20.8886 16.3269 17.9481 16.3269 14.9857V9.37169C18.3868 8.85496 20.3864 8.12797 22.2933 7.20252C22.9311 6.89181 23.5572 6.55821 24.1702 6.20238C25.2577 6.79919 26.3788 7.3345 27.528 7.80574C28.8779 8.35855 30.2625 8.82535 31.6731 9.20326V14.9859ZM47.6277 32.879L44.6866 23.6338C44.451 22.8937 43.9366 22.2707 43.2492 21.8931C42.5619 21.5156 41.7538 21.4121 40.9914 21.6041C40.229 21.7961 39.5702 22.2689 39.1507 22.9251C38.7312 23.5814 38.5829 24.3713 38.7363 25.1321L40.196 32.3749L29.4058 43.7269C28.7733 44.391 28.296 45.1835 28.0071 46.0487C27.7183 46.914 27.6251 47.8311 27.7339 48.7356L28.0992 51.7824L27.698 51.8298C27.3542 51.8702 27.0218 51.977 26.7199 52.1441C26.4179 52.3111 26.1523 52.5352 25.9382 52.8034C25.7241 53.0717 25.5657 53.3789 25.472 53.7075C25.3783 54.0362 25.3512 54.3797 25.3923 54.7187L25.5968 56.3997L25.5971 56.4032L25.5976 56.4059L26.0596 60.2026C26.0735 60.3193 26.1106 60.4322 26.1689 60.5348C26.2271 60.6373 26.3052 60.7276 26.3989 60.8003C26.4925 60.873 26.5998 60.9268 26.7146 60.9586C26.8294 60.9904 26.9494 60.9995 27.0677 60.9855C27.1861 60.9715 27.3005 60.9346 27.4044 60.877C27.5083 60.8193 27.5996 60.742 27.6731 60.6495C27.7466 60.557 27.8009 60.4511 27.8329 60.3378C27.8648 60.2246 27.8738 60.1063 27.8592 59.9896L27.5033 57.0649L41.7516 55.2784L42.1197 58.303C42.1494 58.5374 42.272 58.7506 42.4607 58.8961C42.6495 59.0416 42.889 59.1075 43.1269 59.0794C43.3648 59.0512 43.5817 58.9313 43.7302 58.746C43.8787 58.5606 43.9467 58.3248 43.9193 58.0901L43.4417 54.1668V54.166L43.4416 54.1652L43.2519 52.6062C43.1686 51.9347 42.8234 51.3215 42.2893 50.8967C41.7553 50.4718 41.0744 50.2687 40.391 50.3303C40.4289 49.9746 40.5384 49.6298 40.7129 49.3163C40.8875 49.0027 41.1236 48.7265 41.4076 48.5038L42.7504 47.4576C43.9408 46.5298 44.845 45.2932 45.3617 43.8866L47.5147 38.0226C48.1205 36.3661 48.1602 34.5598 47.6277 32.879ZM40.5341 52.1111C40.751 52.0855 40.9693 52.1456 41.1414 52.2782C41.3135 52.4109 41.4253 52.6054 41.4523 52.8191L41.5357 53.5042L27.2873 55.2906L27.1919 54.5058C27.1663 54.2918 27.2281 54.0766 27.3635 53.9074C27.4989 53.7383 27.6969 53.6291 27.914 53.6038L39.61 52.2204H39.6106L40.5341 52.1111ZM45.8106 37.4141L43.6573 43.2782C43.2554 44.3723 42.5521 45.3343 41.6262 46.056L40.2837 47.1021C39.7568 47.5149 39.3294 48.0378 39.0321 48.633C38.7349 49.2283 38.5752 49.8811 38.5647 50.5445L29.8988 51.5695L29.5339 48.5263C29.4562 47.8802 29.5229 47.2251 29.7293 46.6071C29.9357 45.989 30.2767 45.4229 30.7285 44.9486L41.2875 33.8396C41.6799 34.2401 41.8989 34.7754 41.8982 35.3322C41.8987 35.6843 41.81 36.0308 41.6402 36.3405L39.0724 41.0755C39.0163 41.179 38.9814 41.2923 38.9698 41.4091C38.9581 41.5258 38.9699 41.6437 39.0044 41.756C39.0389 41.8683 39.0956 41.9728 39.1711 42.0635C39.2466 42.1542 39.3395 42.2293 39.4444 42.2846C39.5494 42.3399 39.6644 42.3743 39.7828 42.3858C39.9013 42.3973 40.0208 42.3857 40.1347 42.3517C40.2486 42.3176 40.3546 42.2618 40.4466 42.1874C40.5386 42.113 40.6149 42.0214 40.671 41.9179L43.2385 37.1834C43.7012 36.3323 43.8294 35.3429 43.5987 34.4045C43.3679 33.4661 42.7944 32.6444 41.9878 32.0966L40.5142 24.7844C40.4812 24.621 40.4819 24.4528 40.5161 24.2897C40.5503 24.1265 40.6174 23.9718 40.7134 23.8348C40.8094 23.6977 40.9324 23.581 41.0751 23.4917C41.2177 23.4024 41.3771 23.3422 41.5438 23.3148C41.6134 23.3035 41.6838 23.2977 41.7544 23.2975C42.023 23.2969 42.2848 23.3812 42.5013 23.538C42.7178 23.6948 42.8776 23.916 42.9572 24.1689L45.8986 33.4144C46.3126 34.7214 46.2817 36.126 45.8106 37.4141Z" fill="#21823C"/>
</svg>
