<svg width="62" height="62" viewBox="0 0 62 62" fill="none" xmlns="http://www.w3.org/2000/svg">
<path d="M3 62H9C10.654 62 12 60.654 12 59V57.656L18.135 54.996L45.574 54.994C47.801 55.155 49.863 54.505 51.534 53.1L60.602 45.158C62.277 43.69 62.471 41.216 61.043 39.525C60.573 38.968 59.968 38.567 59.295 38.31C61.067 35.173 62 31.639 62 28C62 18.676 55.888 10.762 47.464 8.029C47.795 7.605 48 7.078 48 6.5C48 5.481 47.386 4.606 46.51 4.217L47.895 1.447C48.05 1.137 48.034 0.769 47.851 0.474C47.668 0.18 47.347 0 47 0H35C34.653 0 34.332 0.18 34.149 0.474C33.966 0.769 33.95 1.137 34.105 1.447L35.49 4.217C34.614 4.606 34 5.481 34 6.5C34 7.078 34.205 7.605 34.536 8.029C26.112 10.762 20 18.676 20 28C20 31.165 20.719 34.283 22.081 37.111C20.28 37.32 18.502 37.877 16.855 38.807L16.584 38.96L12 40.584V40C12 38.346 10.654 37 9 37H3C1.346 37 0 38.346 0 40V59C0 60.654 1.346 62 3 62ZM45.382 2L44.382 4H37.618L36.618 2H45.382ZM36.5 7C36.225 7 36 6.776 36 6.5C36 6.224 36.225 6 36.5 6H45.5C45.775 6 46 6.224 46 6.5C46 6.776 45.775 7 45.5 7H36.5ZM41 9C51.477 9 60 17.523 60 28C60 31.574 58.998 35.032 57.119 38.042C56.282 38.151 55.502 38.493 54.855 39.049L46.153 46.551C45.959 46.717 45.729 46.825 45.488 46.9C45.811 46.308 46 45.647 46 44.952C46 42.736 44.243 41 42 41H33.508C30.971 38.526 27.665 37.173 24.29 37.03C22.797 34.27 22 31.162 22 28C22 17.523 30.523 9 41 9ZM17.334 40.816C17.389 40.797 17.44 40.773 17.491 40.745L17.838 40.55C22.458 37.943 28.275 38.713 32.087 42.408C32.242 42.757 32.593 43 33 43H42C43.141 43 44 43.839 44 44.952C44 45.502 43.79 46.018 43.409 46.406C43.032 46.789 42.532 47 42.001 47H42L31 46.999V48.999L42 49L42.387 49.004C42.963 49.011 43.958 49.024 45.023 49C45.915 48.98 46.779 48.65 47.458 48.068L56.16 40.565C56.639 40.153 57.27 39.958 57.912 40.008C58.552 40.06 59.121 40.346 59.516 40.815C60.245 41.679 60.146 42.9 59.285 43.654L50.232 51.584C48.984 52.634 47.418 53.121 45.647 52.998H17.927C17.79 52.998 17.655 53.026 17.53 53.081L12 55.477V42.706L17.334 40.816ZM2 40C2 39.449 2.448 39 3 39H9C9.552 39 10 39.449 10 40V59C10 59.551 9.552 60 9 60H3C2.448 60 2 59.551 2 59V40Z" fill="#21823C"/>
<path d="M41 38C47.065 38 52 33.065 52 27C52 20.935 47.065 16 41 16C34.935 16 30 20.935 30 27C30 33.065 34.935 38 41 38ZM41 18C45.963 18 50 22.038 50 27C50 31.962 45.963 36 41 36C36.037 36 32 31.962 32 27C32 22.038 36.037 18 41 18Z" fill="#21823C"/>
<path d="M41 32C39.897 32 39 31.103 39 30H37C37 31.858 38.279 33.411 40 33.858V35H42V33.858C43.721 33.411 45 31.858 45 30C45 27.794 43.206 26 41 26C39.897 26 39 25.103 39 24C39 22.897 39.897 22 41 22C42.103 22 43 22.897 43 24H45C45 22.142 43.721 20.589 42 20.142V19H40V20.142C38.279 20.589 37 22.142 37 24C37 26.206 38.794 28 41 28C42.103 28 43 28.897 43 30C43 31.103 42.103 32 41 32Z" fill="#21823C"/>
</svg>
