<svg width="47" height="47" viewBox="0 0 47 47" fill="none" xmlns="http://www.w3.org/2000/svg">
<path d="M43.8667 40.7334H34.4667C32.7386 40.7334 31.3333 39.3281 31.3333 37.6V31.3334C31.3333 29.6053 32.7386 28.2 34.4667 28.2H43.8667C45.5947 28.2 47 29.6053 47 31.3334V37.6C47 39.3281 45.5947 40.7334 43.8667 40.7334ZM34.4667 31.3334V37.6H43.8698L43.8667 31.3334H34.4667ZM43.8667 47H34.4651C34.0496 47 33.6511 46.835 33.3573 46.5412C33.0635 46.2474 32.8984 45.8489 32.8984 45.4334C32.8984 45.0179 33.0635 44.6194 33.3573 44.3256C33.6511 44.0318 34.0496 43.8667 34.4651 43.8667H43.8667C44.2822 43.8667 44.6807 44.0318 44.9745 44.3256C45.2683 44.6194 45.4333 45.0179 45.4333 45.4334C45.4333 45.8489 45.2683 46.2474 44.9745 46.5412C44.6807 46.835 44.2822 47 43.8667 47Z" fill="#21823C"/>
<path d="M39.1667 45.4334C38.7512 45.4334 38.3527 45.2683 38.0589 44.9745C37.7651 44.6807 37.6 44.2822 37.6 43.8667V39.1667C37.6 38.7512 37.7651 38.3527 38.0589 38.0589C38.3527 37.7651 38.7512 37.6 39.1667 37.6C39.5822 37.6 39.9807 37.7651 40.2745 38.0589C40.5683 38.3527 40.7333 38.7512 40.7333 39.1667V43.8667C40.7333 44.2822 40.5683 44.6807 40.2745 44.9745C39.9807 45.2683 39.5822 45.4334 39.1667 45.4334ZM12.5333 40.7334H3.13333C1.4053 40.7334 0 39.3281 0 37.6V31.3334C0 29.6053 1.4053 28.2 3.13333 28.2H12.5333C14.2614 28.2 15.6667 29.6053 15.6667 31.3334V37.6C15.6667 39.3281 14.2614 40.7334 12.5333 40.7334ZM3.13333 31.3334V37.6H12.5365L12.5333 31.3334H3.13333ZM12.5333 47H3.13177C2.71626 47 2.31777 46.835 2.02397 46.5412C1.73016 46.2474 1.5651 45.8489 1.5651 45.4334C1.5651 45.0179 1.73016 44.6194 2.02397 44.3256C2.31777 44.0318 2.71626 43.8667 3.13177 43.8667H12.5333C12.9488 43.8667 13.3473 44.0318 13.6411 44.3256C13.9349 44.6194 14.1 45.0179 14.1 45.4334C14.1 45.8489 13.9349 46.2474 13.6411 46.5412C13.3473 46.835 12.9488 47 12.5333 47Z" fill="#21823C"/>
<path d="M7.83336 45.4333C7.41785 45.4333 7.01937 45.2682 6.72556 44.9744C6.43175 44.6806 6.26669 44.2821 6.26669 43.8666V39.1666C6.26669 38.7511 6.43175 38.3526 6.72556 38.0588C7.01937 37.765 7.41785 37.6 7.83336 37.6C8.24887 37.6 8.64735 37.765 8.94116 38.0588C9.23497 38.3526 9.40003 38.7511 9.40003 39.1666V43.8666C9.40003 44.2821 9.23497 44.6806 8.94116 44.9744C8.64735 45.2682 8.24887 45.4333 7.83336 45.4333ZM32.9 36.0333H14.1C13.6845 36.0333 13.286 35.8682 12.9922 35.5744C12.6984 35.2806 12.5334 34.8821 12.5334 34.4666C12.5334 34.0511 12.6984 33.6526 12.9922 33.3588C13.286 33.065 13.6845 32.9 14.1 32.9H32.9C33.3155 32.9 33.714 33.065 34.0078 33.3588C34.3016 33.6526 34.4667 34.0511 34.4667 34.4666C34.4667 34.8821 34.3016 35.2806 34.0078 35.5744C33.714 35.8682 33.3155 36.0333 32.9 36.0333Z" fill="#21823C"/>
<path d="M23.5 36.0334C23.0845 36.0334 22.686 35.8683 22.3922 35.5745C22.0984 35.2807 21.9333 34.8822 21.9333 34.4667V21.9334C21.9333 21.5179 22.0984 21.1194 22.3922 20.8256C22.686 20.5318 23.0845 20.3667 23.5 20.3667C23.9155 20.3667 24.314 20.5318 24.6078 20.8256C24.9016 21.1194 25.0667 21.5179 25.0667 21.9334V34.4667C25.0667 34.8822 24.9016 35.2807 24.6078 35.5745C24.314 35.8683 23.9155 36.0334 23.5 36.0334Z" fill="#21823C"/>
<path d="M34.4666 23.5H12.5333C10.8053 23.5 9.39996 22.0947 9.39996 20.3667V17.2334C9.39996 15.5053 10.8053 14.1 12.5333 14.1H34.4666C36.1947 14.1 37.6 15.5053 37.6 17.2334V20.3667C37.6 22.0947 36.1947 23.5 34.4666 23.5ZM12.5333 17.2334V20.3667H34.4666V17.2381L12.5333 17.2334ZM34.4666 17.2334H36.0333H34.4666Z" fill="#21823C"/>
<path d="M10.9667 21.9333H7.83333C3.51403 21.9333 0 18.637 0 14.5856C0 10.5342 3.51403 7.23798 7.83333 7.23798C8.24884 7.23798 8.64733 7.40304 8.94113 7.69684C9.23494 7.99065 9.4 8.38914 9.4 8.80464C9.4 9.22015 9.23494 9.61864 8.94113 9.91244C8.64733 10.2063 8.24884 10.3713 7.83333 10.3713C5.24207 10.3713 3.13333 12.2623 3.13333 14.5856C3.13333 16.909 5.24207 18.8 7.83333 18.8H10.9667C11.3822 18.8 11.7807 18.965 12.0745 19.2588C12.3683 19.5526 12.5333 19.9511 12.5333 20.3666C12.5333 20.7821 12.3683 21.1806 12.0745 21.4744C11.7807 21.7682 11.3822 21.9333 10.9667 21.9333ZM39.1667 21.9333H36.0333C35.6178 21.9333 35.2193 21.7682 34.9255 21.4744C34.6317 21.1806 34.4667 20.7821 34.4667 20.3666C34.4667 19.9511 34.6317 19.5526 34.9255 19.2588C35.2193 18.965 35.6178 18.8 36.0333 18.8H39.1667C41.7579 18.8 43.8667 16.909 43.8667 14.5856C43.8667 12.2623 41.7579 10.3713 39.1667 10.3713C38.7512 10.3713 38.3527 10.2063 38.0589 9.91244C37.7651 9.61864 37.6 9.22015 37.6 8.80464C37.6 8.38914 37.7651 7.99065 38.0589 7.69684C38.3527 7.40304 38.7512 7.23798 39.1667 7.23798C43.486 7.23798 47 10.5342 47 14.5856C47 18.637 43.486 21.9333 39.1667 21.9333Z" fill="#21823C"/>
<path d="M39.1667 10.3635C38.7512 10.3635 38.3527 10.1984 38.0589 9.90464C37.7651 9.61083 37.6 9.21234 37.6 8.79683C37.6 5.67447 34.7894 3.13333 31.3333 3.13333C27.8773 3.13333 25.0667 5.67447 25.0667 8.79683C25.0667 9.21234 24.9016 9.61083 24.6078 9.90464C24.314 10.1984 23.9155 10.3635 23.5 10.3635C23.0845 10.3635 22.686 10.1984 22.3922 9.90464C22.0984 9.61083 21.9333 9.21234 21.9333 8.79683C21.9333 3.94643 26.1492 0 31.3333 0C36.5174 0 40.7333 3.94643 40.7333 8.79683C40.7333 9.21234 40.5683 9.61083 40.2745 9.90464C39.9807 10.1984 39.5822 10.3635 39.1667 10.3635Z" fill="#21823C"/>
<path d="M23.5 10.3635C23.0845 10.3635 22.686 10.1984 22.3922 9.90464C22.0984 9.61083 21.9334 9.21234 21.9334 8.79683C21.9334 5.67447 19.1228 3.13333 15.6667 3.13333C12.2106 3.13333 9.40003 5.67447 9.40003 8.79683C9.40003 9.21234 9.23497 9.61083 8.94116 9.90464C8.64735 10.1984 8.24887 10.3635 7.83336 10.3635C7.41785 10.3635 7.01937 10.1984 6.72556 9.90464C6.43175 9.61083 6.26669 9.21234 6.26669 8.79683C6.26669 3.94643 10.4826 0 15.6667 0C20.8508 0 25.0667 3.94643 25.0667 8.79683C25.0667 9.21234 24.9016 9.61083 24.6078 9.90464C24.314 10.1984 23.9155 10.3635 23.5 10.3635Z" fill="#21823C"/>
<path d="M23.5 10.9698C23.0845 10.9698 22.686 10.8048 22.3922 10.511C22.0984 10.2172 21.9333 9.81868 21.9333 9.40317V6.26671C21.9333 5.8512 22.0984 5.45272 22.3922 5.15891C22.686 4.8651 23.0845 4.70004 23.5 4.70004C23.9155 4.70004 24.314 4.8651 24.6078 5.15891C24.9016 5.45272 25.0667 5.8512 25.0667 6.26671V9.40317C25.0667 9.81868 24.9016 10.2172 24.6078 10.511C24.314 10.8048 23.9155 10.9698 23.5 10.9698Z" fill="#21823C"/>
</svg>
