<svg width="47" height="47" viewBox="0 0 47 47" fill="none" xmlns="http://www.w3.org/2000/svg">
<path d="M23.5 0C10.5312 0 0 10.5312 0 23.5C0 36.4688 10.5312 47 23.5 47C36.4688 47 47 36.4688 47 23.5C47 10.5312 36.4688 0 23.5 0ZM23.5 1.62069C35.5936 1.62069 45.3793 11.4064 45.3793 23.5C45.3793 35.5936 35.5936 45.3793 23.5 45.3793C11.4064 45.3793 1.62069 35.5936 1.62069 23.5C1.62069 11.4064 11.4064 1.62069 23.5 1.62069ZM23.5 5.04521C13.3172 5.04521 5.04521 13.3172 5.04521 23.5C5.04521 33.6828 13.3172 41.9548 23.5 41.9548C33.6828 41.9548 41.9548 33.6828 41.9548 23.5C41.9548 13.3172 33.6828 5.04521 23.5 5.04521ZM23.5 6.6659C25.7111 6.6644 27.9008 7.09881 29.9439 7.94428C31.987 8.78974 33.8433 10.0297 35.4068 11.5932C36.9703 13.1567 38.2103 15.013 39.0557 17.0561C39.9012 19.0992 40.3356 21.2889 40.3341 23.5C40.3356 25.7111 39.9012 27.9008 39.0557 29.9439C38.2103 31.987 36.9703 33.8433 35.4068 35.4068C33.8433 36.9703 31.987 38.2103 29.9439 39.0557C27.9008 39.9012 25.7111 40.3356 23.5 40.3341C21.2889 40.3356 19.0992 39.9012 17.0561 39.0557C15.013 38.2103 13.1567 36.9703 11.5932 35.4068C10.0297 33.8433 8.78974 31.987 7.94428 29.9439C7.09881 27.9008 6.6644 25.7111 6.6659 23.5C6.6644 21.2889 7.09881 19.0992 7.94428 17.0561C8.78974 15.013 10.0297 13.1567 11.5932 11.5932C13.1567 10.0297 15.013 8.78974 17.0561 7.94428C19.0992 7.09881 21.2889 6.6644 23.5 6.6659ZM21.069 11.3481V14.8082C19.3834 15.0659 17.8308 15.9233 16.9638 17.4257C16.4665 18.2882 16.2048 19.2663 16.2048 20.2619C16.2048 21.2574 16.4665 22.2355 16.9638 23.0981C17.8308 24.6004 19.3818 25.4578 21.069 25.7155V27.555H16.2069V32.417H21.069V35.6584H25.931V32.1982C27.6166 31.9389 29.1659 31.0832 30.033 29.5808C30.5302 28.7183 30.792 27.7402 30.792 26.7446C30.792 25.749 30.5302 24.7709 30.033 23.9084C29.1659 22.406 27.6182 21.5487 25.931 21.291V19.4515H30.7931V14.5894H25.931V11.3481H21.069ZM22.6897 12.9688H24.3103V16.2101H29.1724V17.8308H24.3103V22.6929H25.1207C25.8314 22.6942 26.5293 22.8822 27.1444 23.2382C27.7595 23.5942 28.2703 24.1056 28.6255 24.7211C28.9807 25.3367 29.1679 26.0348 29.1683 26.7455C29.1687 27.4562 28.9824 28.1545 28.6279 28.7705C28.2721 29.3859 27.7609 29.8971 27.1453 30.2527C26.5298 30.6082 25.8316 30.7957 25.1207 30.7963H24.3103V34.0377H22.6897V30.7963H17.8276V29.1757H22.6897V24.3136H21.8793C20.4337 24.3136 19.0917 23.5389 18.3689 22.2877C18.0139 21.6716 17.8271 20.973 17.8271 20.2619C17.8271 19.5508 18.0139 18.8522 18.3689 18.236C18.7254 17.6205 19.2373 17.1094 19.8533 16.7539C20.4694 16.3984 21.168 16.2109 21.8793 16.2101H22.6897V12.9688ZM21.8793 17.8308C21.0122 17.8308 20.2051 18.2943 19.7724 19.0463C19.5595 19.4161 19.4475 19.8352 19.4475 20.2619C19.4475 20.6885 19.5595 21.1077 19.7724 21.4774C20.2051 22.2294 21.0122 22.6929 21.8793 22.6929H22.6897V17.8308H21.8793ZM24.3103 24.3136V29.1757H25.1207C25.9878 29.1757 26.7932 28.7089 27.226 27.9601C27.4389 27.5904 27.5509 27.1713 27.5509 26.7446C27.5509 26.318 27.4389 25.8988 27.226 25.5291C27.0122 25.1599 26.7053 24.8533 26.3358 24.6399C25.9663 24.4266 25.5473 24.3141 25.1207 24.3136H24.3103Z" fill="#21823C"/>
</svg>
